<?xml version="1.0" encoding="UTF-8"?>
<svg id="Layer_1" data-name="Layer 1" xmlns="http://www.w3.org/2000/svg" viewBox="0 0 2991.5 565.37">
  <defs>
    <style>
      .cls-1 {
        fill: #303b70;
      }
    </style>
  </defs>
  <g>
    <path class="cls-1" d="M159.97,458.9l-38-33.17s0,0,0-.01h-.03c4.54-8.71,5.97-20.3,5.97-36.55,0-25.18-14.55-46.94-35.7-57.38v.04s-.08-.04-.11-.06v1.24c-3.77,18.15-4.57,36.8-2.35,55.21l1.46,12.1c-9.87-13.39-15.48-29.78-15.48-46.9v-27.07c-3.82-.71-7.75-1.1-11.77-1.1-3.37,0-6.67.27-9.89.78v-.05c-2.22.35-4.4.81-6.55,1.38,10.89-13.82,18.16-30.14,21.11-47.5l6.64-39.05c.15-.04.3-.07.45-.11v-.04c5-1.32,10.38-3.53,16.38-6.58v.02c2.98-1.51,6.11-3.22,9.42-5.14,8.81-5.09,15.95-11.95,21.22-19.88,8.8-13.2,12.44-29.34,10.05-45.14-10.92,5.27-21.07,12-30.15,20.05l-3.54,3.14c-8.96,7-16.56,15.48-22.53,25.03,3.49-23.64,17.62-44.81,38.63-56.93l12.87-7.43c-.93-2.1-1.97-4.17-3.14-6.2-3.05-5.28-6.75-9.95-10.93-14l.03-.02c-.48-.46-.98-.89-1.47-1.33-.09-.08-.18-.17-.28-.25-.63-.57-1.27-1.13-1.92-1.67l7.81,1.09c17.97,2.52,36.29.35,53.17-6.3l20.01-7.88,8.87-5.12s0,0,0,0l.1-.06c4.02,3.44,8.92,6.83,14.76,10.39l-.1.05c1.52.93,3.09,1.86,4.74,2.82,27.1,15.64,60.87,9.19,80.5-13.74h-.02c.08-.1.16-.19.23-.28l-2.01-1.26c-5.33-3.34-10.9-6.28-16.67-8.78-12.86-5.57-26.57-8.92-40.55-9.91l-2.83-.2c19.68-7.65,41.8-7.13,61.14,1.57.02.01.05.02.07.03,2.36,1.07,4.69,2.25,6.96,3.56l2.67,1.54c2.74-5.63,4.55-11.48,5.54-17.4l.04.19c.66-3.88.94-7.78.89-11.66l3.6,7.79c7.62,16.47,19.37,30.69,34.1,41.28l34.92,25.1c-.05.09-.11.17-.16.26l.03.02c-2.63,4.39-4.35,9.57-5.42,15.78h0c-.14.83-.27,1.69-.39,2.57-.02.15-.04.31-.06.46-.1.76-.19,1.52-.28,2.31-.03.28-.05.56-.08.84-.07.69-.13,1.4-.19,2.11-.02.28-.04.57-.06.86-.06.76-.11,1.54-.15,2.32-.01.24-.03.48-.04.72-.05.92-.09,1.86-.12,2.82,0,.11,0,.22-.01.34-.07,2.27-.11,4.62-.11,7.1,0,5.37.66,10.58,1.91,15.56.06.24.13.47.2.71.2.75.39,1.49.61,2.23.19.64.41,1.26.62,1.89.11.33.21.66.33.99.33.93.68,1.85,1.05,2.76,0,.02.02.04.02.06,9.19,22.46,30.79,38.53,56.27,39.69l.13-.12.07-11.32c.06-10.69-1.26-21.36-4.46-31.55-1.46-4.64-3.09-9.57-4.64-13.59-.13-.32-.25-.65-.38-.98-4.45-11.24-11.2-21.2-19.42-29.9l5.39,3.11c20.49,11.83,34.45,32.26,38.36,55.2.02.12.04.23.06.35.11.66.21,1.32.3,1.99.03.23.06.45.09.68.07.55.13,1.09.19,1.64.03.32.07.65.1.97.24,2.5.37,5.02.37,7.56v14.64c9.46-1.99,18.15-6.09,25.57-11.76v.03c.18-.14.35-.29.53-.43.56-.44,1.12-.89,1.67-1.35.43-.36.86-.73,1.28-1.1.07-.06.13-.11.2-.17,0,0,0,0,0,0,13.16-11.71,21.47-28.76,21.47-47.76,0-.48-.02-.95-.03-1.43,0-.43-.01-.85-.03-1.28-.01-.25-.03-.51-.05-.76-.04-.69-.08-1.37-.14-2.06,0-.03,0-.06,0-.1h0c-2.2-25.35-19.17-46.46-42.27-54.67-9.21-3.28-19.03-3.36-28.75-1.94h.02c-.1.03-.21.04-.31.06l12.74,8.64,3.37,2.75c8.15,6.64,14.49,15.23,18.44,24.98,3.79,9.37,6.22,19.23,7.21,29.29l.36,3.7c-8.92-21.95-24.95-40.75-46.13-52.98l-112.4-64.9c-1.82-1.05-3.66-2.03-5.52-2.97-.45-15.15-6.26-29.89-16.68-41.3h-.16c-4.29-4.7-9.35-8.82-15.14-12.16-22.84-13.19-50.42-10.67-70.29,4.17h-.06c-1.04.77-2.06,1.58-3.06,2.43-4.84,4.12-8.65,9.15-11.71,14.66-3.97,7.11-6.71,15.06-8.88,22.98-.75,2.75-1.38,5.34-1.92,7.83l.04-.02c-.03.14-.07.29-.1.42l20.58-7.82c18.46-7.01,38.65-7.94,57.67-2.71-18.31.19-36.59,5.01-53,14.48l-102.68,59.28c-15.28-12.63-35.75-17.55-55.19-13.04v.03c-6.02,1.39-11.93,3.69-17.55,6.93C13.5,132.1,1.88,159.29,6.64,185.15c2.63,14.3,12.03,26.23,22.25,36.56.41.42.81.8,1.22,1.21,0-.11,0-.21,0-.32l1.15-8.16c2.43-17.25,11.07-33.01,24.31-44.33l9.18-6.68c-11.72,17.52-18.28,38.38-18.28,60.18v104.03c-13.71,3.89-25.55,12.24-33.84,23.39-.01.01-.02.03-.03.04-.37.5-.74,1-1.09,1.51-.09.13-.17.25-.26.38-.28.4-.55.81-.82,1.22-.17.25-.33.51-.49.77-.18.29-.37.57-.54.86-.25.41-.49.83-.74,1.24-.08.14-.17.29-.25.43-5.35,9.34-8.41,20.17-8.41,31.71,0,27.8,17.74,51.46,42.52,60.27,10.91,3.88,22.67,3.29,34.12,1.02-.76-.62-1.51-1.24-2.26-1.88l-2.19-2.29c-5.5-5.74-10.07-12.3-13.55-19.45-1.69-3.47-2.98-7.11-3.85-10.87l-1.33-5.73c-2-8.65-2.86-17.52-2.59-26.38,7.32,24.94,23.49,46.74,45.95,60.95.04.02.07.05.11.07,0,0,0,0,0,0,1.2.76,2.42,1.5,3.66,2.22l87.23,50.36c-6.21-14.8-15.72-28.01-27.85-38.59Z"/>
    <path class="cls-1" d="M518.5,395.65c0-.21,0-.42,0-.64-.01-1.1-.05-2.21-.12-3.32,0-.02,0-.03,0-.05-.07-1.09-.18-2.19-.31-3.28-.03-.28-.07-.55-.1-.83-.14-1.05-.29-2.1-.48-3.15,0-.04-.01-.07-.02-.11-.22-1.2-.49-2.39-.81-3.56-.01-.05-.02-.09-.03-.14-.13-.49-.28-.98-.43-1.46-.04-.12-.07-.24-.11-.37-.14-.45-.3-.9-.45-1.34-.05-.15-.1-.31-.16-.46-.15-.43-.32-.85-.48-1.27-.07-.17-.13-.34-.19-.51-.16-.4-.33-.8-.51-1.21-.08-.18-.15-.36-.23-.54-.17-.39-.35-.77-.53-1.15-.09-.19-.18-.39-.27-.58-.18-.37-.37-.74-.55-1.11-.1-.2-.2-.4-.3-.59-.19-.36-.38-.71-.58-1.07-.11-.2-.22-.41-.33-.61-.2-.35-.4-.69-.6-1.03-.12-.21-.24-.42-.37-.62-.2-.34-.41-.67-.62-1-.13-.21-.26-.42-.39-.62-.21-.33-.43-.66-.64-.98-.14-.21-.27-.42-.41-.62-.22-.32-.44-.64-.66-.95-.15-.21-.29-.42-.44-.63-.22-.31-.45-.62-.68-.94-.15-.21-.3-.41-.46-.62-.23-.31-.47-.62-.71-.93-.15-.2-.31-.4-.46-.6-.24-.31-.49-.62-.73-.93-.1-.12-.19-.25-.29-.37,0,0,0,0,0,0-.15-.19-.3-.38-.46-.57l-.23,2.8-.47,2.56c-2.76,15.14-9.46,29.28-19.43,41-6.78,7.97-14.37,15.19-22.65,21.55,15.72-17.9,25.29-40.73,26.72-65.04.13-2.12.2-4.24.2-6.38v-12.76h0s0-116.68,0-116.68l-.95,1.24c-10.98,14.45-18.04,31.48-20.5,49.46l-7.2,52.67c-.2,0-.4-.01-.6-.01v.02c-5.11.03-10.46,1.21-16.38,3.46h0c-.21.07-.42.16-.63.24-1.15.45-2.32.93-3.51,1.46-.13.06-.27.11-.4.17-.64.28-1.29.58-1.94.89-.26.12-.52.25-.78.37-2.05.98-4.18,2.07-6.39,3.26-.31.17-.62.33-.93.51-.69.38-1.38.76-2.09,1.15-.24.14-.49.28-.74.42-.7.39-1.38.77-2.1,1.19-.6.35-1.19.72-1.78,1.09-.25.16-.52.31-.77.47-.04.03-.08.05-.12.07h0c-15.42,9.94-25.23,25.52-28.28,42.43h0c-.14.8-.27,1.6-.38,2.4-.03.24-.06.48-.09.71-.08.61-.15,1.22-.21,1.83-.02.23-.05.46-.07.69-.15,1.65-.23,3.3-.25,4.96,0,.21,0,.43,0,.64,0,.64,0,1.28.02,1.91,0,.23.01.45.02.68.03.81.07,1.62.14,2.42,0,.02,0,.04,0,.07.06.82.15,1.65.25,2.47.03.25.06.49.09.74.08.59.16,1.19.26,1.78.04.27.08.53.13.8.12.71.25,1.41.4,2.12.03.14.05.27.08.41.16.76.34,1.53.54,2.29.07.3.16.59.23.88.14.52.29,1.05.44,1.57.09.31.18.62.28.93.19.6.39,1.21.6,1.81.06.17.11.34.17.51h0s0,.03.02.04l12.91-7.06c6.74-3.68,13.19-7.85,19.32-12.47l4.16-3.13c4.62-3.48,8.92-7.35,12.87-11.57,5.57-5.97,10.37-12.59,14.29-19.7-2.75,21.7-14.46,41.46-32.25,54.26-2.11,1.52-4.32,2.94-6.6,4.26l-2.85,1.64h0s-14.47,8.36-14.47,8.36c5.04,7.43,11.43,13.48,18.63,18.04h-.02c.17.12.35.22.52.33.3.18.59.37.89.54.83.5,1.68.98,2.53,1.44.02.01.04.02.06.03l-1.96-.25c-18-2.31-36.29.06-53.1,6.9l-48.72,19.81-3.59,2.07c-2-10.04-8.05-17.71-18.86-25.57l-.06-.02c-4.08-2.96-8.83-5.96-14.3-9.12-12.38-7.15-26.15-9.67-39.33-8.13h-.01c-.07,0-.14.02-.21.03-.73.09-1.46.19-2.19.3-.12.02-.24.04-.35.05-.78.13-1.56.27-2.34.42-.06.01-.12.02-.18.04-11.98,2.43-23.24,8.25-32.2,17.08l.04.02s-.09.08-.13.12l.22.21s8.34,7.75,14.04,12.28c10.31,8.21,16.03,13.37,28.08,18.72,2.06.91,4.03,1.8,5.9,2.65,7.79,3.54,16.11,5.73,24.54,6.42-4.13.65-8.3.98-12.48.98-11.8,0-23.58-2.62-34.38-7.83-1.72-.83-3.42-1.73-5.1-2.69l-11.58-6.68h0s-19.33-11.16-19.33-11.16c-.12.2-.24.38-.35.58-5.14,8.9-7.88,18.51-8.45,28.11l.06.03c-.4,6.78.28,13.55,1.98,20.06l-.07-.04c4.18,15.95,14.47,30.3,29.88,39.2,7.53,4.35,15.58,6.99,23.69,8.05,17.85,2.34,36.04-3,49.81-14.72,4.1-3.49,7.45-7.63,10.25-12.17l-.08.02c.13-.22.27-.43.4-.65-2.6.8-5.23,1.49-7.87,2.12l-5.26,1.03c-16.17,3.18-32.95.63-47.45-7.21-2.7-1.46-5.24-3.22-7.56-5.23l-12.37-10.75c.36.16.71.31,1.07.46.15.06.3.13.45.2,28.07,11.91,59.96,11.43,87.72-1.43.02,0,.03-.01.05-.02h0c2.91-1.35,5.78-2.83,8.59-4.45l103.36-59.68s0,0,0,0h.01c6.51,3.44,13.57,5.74,20.83,6.79,0,0,0,0,0,0,.1.01.21.02.31.04.64.09,1.27.17,1.91.24.16.02.32.04.48.05,1.64.17,3.29.27,4.95.31.16,0,.32,0,.48,0,.65.01,1.31.01,1.96,0,.22,0,.45,0,.67-.01.6-.01,1.21-.04,1.81-.07.23-.01.46-.02.69-.04.65-.04,1.3-.09,1.95-.16.17-.02.34-.03.51-.05.81-.08,1.62-.18,2.43-.3.18-.03.35-.06.53-.08.62-.09,1.23-.19,1.85-.3.32-.06.64-.12.96-.18.47-.09.95-.19,1.42-.29.36-.08.71-.16,1.07-.25.43-.1.86-.21,1.29-.33.37-.1.75-.19,1.12-.3.42-.12.83-.24,1.25-.37.67-.2,1.34-.42,2-.64.41-.14.83-.28,1.24-.43.44-.16.88-.33,1.31-.5.32-.13.65-.25.97-.38.45-.18.89-.37,1.33-.56.31-.13.62-.27.93-.41.45-.2.9-.41,1.34-.62.29-.14.58-.29.87-.43.46-.23.92-.46,1.38-.7.22-.12.44-.24.66-.36.48-.26.95-.51,1.42-.78,20.56-11.87,32.03-33.44,31.98-55.6Z"/>
  </g>
  <g>
    <path class="cls-1" d="M658.42,396.79v-255.79h63.56l80.85,134.29,19.55,40.62-3.01-174.91h60.17v255.78h-63.56l-80.85-134.29-19.55-41,3.01,175.29h-60.17Z"/>
    <path class="cls-1" d="M978.44,261.37h-57.54c6.02-45.52,40.99-73.35,92.89-73.35,57.91,0,88,33.85,88,80.87v77.49c0,26.33,2.25,39.87,5.64,50.41h-59.42c-1.88-6.77-3.01-15.42-3.38-25.2-15.79,21.82-39.86,31.22-63.93,31.22-38.36,0-66.94-19.56-66.94-58.3,0-27.46,15.79-48.52,47.76-59.81,26.32-8.65,51.52-11.28,82.73-11.66v-4.51c0-22.19-10.91-33.85-33.09-33.85-19.56,0-30.09,10.91-32.72,26.71h0ZM971.29,340.74c0,13.54,10.15,22.19,27.08,22.19,25.57,0,45.88-20.69,45.88-48.52v-7.9c-58.29,1.13-72.96,15.42-72.96,34.23Z"/>
    <path class="cls-1" d="M1142.74,396.79v-202.37h57.54v26.71c13.16-22.57,33.85-33.1,58.67-33.1,38.73,0,67.69,23.7,67.69,73.73v135.04h-57.54v-123.38c0-25.58-10.15-38.74-31.21-38.74-22.94,0-37.61,19.94-37.61,45.89v116.23h-57.54Z"/>
    <path class="cls-1" d="M1581.69,396.79v-255.79h183.52v47.77h-123.35v62.44h108.68v47.77h-108.68v97.8h-60.17Z"/>
    <path class="cls-1" d="M2009.45,396.79v-202.37h57.54v28.21c12.78-24.07,32.34-34.61,53.02-34.61,8.27,0,15.79,2.26,19.92,6.39v48.52c-6.76-1.5-13.91-2.26-22.93-2.26-34.6,0-50.01,19.56-50.01,51.53v104.57h-57.54,0Z"/>
    <path class="cls-1" d="M2233.76,397.17c-51.15,0-83.11-39.87-83.11-104.19s32.72-104.95,83.11-104.95c22.55,0,40.24,8.65,52.64,25.2v-18.81h57.53v209.14c0,54.17-38.36,82.38-91.38,82.38s-88.75-22.57-95.9-71.84h57.55c2.25,18.05,17.67,27.84,37.6,27.84s34.6-9.4,34.6-37.61v-33.85c-12.78,17.68-30.83,26.71-52.64,26.71h0ZM2247.66,350.52c25.58,0,38.74-20.31,38.74-57.93,0-33.7-10.87-53.51-31.24-57.27-.47-.09-.94-.17-1.28-.23-4.1-.62-8.3-.62-12.41,0-.34.06-.8.14-1.27.23s-.75.16-1.08.26c-6.42,2.41-13.33,4.72-17.43,10.6-.24.3-.52.65-.8,1.03-6.44,8.47-10.12,21.13-10.99,37.73-.02.37-.04.74-.05,1.11-.18,4.67-.18,9.27,0,13.82.02.37.04.74.06,1.11.04.74.08,1.46.14,2.18,0,.3.02.61.02.89-.53,4.83.96,9.3,2.24,13.9.07.31.13.61.05.93,4.99,20.94,16.97,31.64,35.33,31.64h0Z"/>
    <path class="cls-1" d="M2573.61,330.21c-10.53,46.64-48.13,72.6-97.77,72.6-62.81,0-101.54-40.62-101.54-107.2s39.12-107.58,99.29-107.58,98.52,40.25,98.52,106.45v12.79h-139.14c3.01,32.35,18.05,49.65,42.87,49.65,18.8,0,31.59-8.27,37.61-26.71h60.16ZM2473.58,233.92c-21.44,0-34.98,13.92-39.49,40.25h78.6c-4.51-26.33-18.05-40.25-39.1-40.25Z"/>
    <path class="cls-1" d="M2841.41,396.79l-16.91-47.77h-100.42l-16.91,47.77h-60.56l93.27-255.78h72.2l93.64,255.78h-64.31ZM2766.58,229.03l-25.95,73.73h67.32l-25.95-73.73-7.52-28.96-7.89,28.96h0Z"/>
    <path class="cls-1" d="M2931.32,396.79v-255.79h60.18v255.78h-60.18Z"/>
    <path class="cls-1" d="M1523.94,221.23l-45.65-26.36c-16.39-9.46-36.58-9.46-52.97,0l-45.65,26.36c-16.39,9.46-26.48,26.95-26.48,45.88v52.73c0,18.93,10.09,36.42,26.48,45.88l45.65,26.36c16.39,9.46,36.58,9.46,52.97,0l45.65-26.36c16.39-9.46,26.48-26.95,26.48-45.88v-52.73c0-18.93-10.09-36.42-26.48-45.88h0ZM1496.19,309.37c0,6.57-3.48,12.65-9.14,15.98l-26.48,15.58c-5.8,3.41-13,3.41-18.8,0l-26.48-15.58c-5.66-3.33-9.14-9.41-9.14-15.98v-31.77c0-6.57,3.48-12.65,9.14-15.98l26.48-15.58c5.8-3.41,13-3.41,18.8,0l26.48,15.58c5.66,3.33,9.14,9.41,9.14,15.98v31.77h0Z"/>
    <path class="cls-1" d="M1952.97,221.23l-45.65-26.36c-16.39-9.46-36.58-9.46-52.97,0l-45.66,26.36c-16.39,9.46-26.48,26.95-26.48,45.88v52.73c0,18.93,10.1,36.42,26.48,45.88l45.66,26.36c16.39,9.46,36.58,9.46,52.97,0l45.65-26.36c16.39-9.46,26.48-26.95,26.48-45.88v-52.73c0-18.93-10.1-36.42-26.48-45.88h0ZM1925.22,309.37c0,6.57-3.48,12.65-9.14,15.98l-26.48,15.58c-5.8,3.41-13,3.41-18.8,0l-26.48-15.58c-5.66-3.33-9.14-9.41-9.14-15.98v-31.77c0-6.57,3.48-12.65,9.14-15.98l26.48-15.58c5.8-3.41,13-3.41,18.8,0l26.48,15.58c5.66,3.33,9.14,9.41,9.14,15.98v31.77h0Z"/>
  </g>
</svg>