<?xml version="1.0" encoding="UTF-8"?>
<svg id="Layer_1" xmlns="http://www.w3.org/2000/svg" version="1.1" viewBox="0 0 641.65 699.65">
  <!-- Generator: Adobe Illustrator 29.7.1, SVG Export Plug-In . SVG Version: 2.1.1 Build 8)  -->
  <defs>
    <style>
      .st0 {
        fill: #efecee;
      }
    </style>
  </defs>
  <path class="st0" d="M635.52,470.18v-.79c-.02-1.37-.06-2.73-.15-4.1v-.06c-.09-1.35-.22-2.71-.38-4.06-.04-.34-.08-.68-.13-1.03-.17-1.3-.36-2.6-.6-3.9,0-.05-.01-.09-.02-.14-.27-1.49-.61-2.95-1-4.4-.02-.06-.03-.11-.04-.17-.16-.61-.35-1.21-.53-1.81-.05-.15-.09-.3-.13-.45-.18-.56-.37-1.11-.56-1.66-.07-.19-.13-.38-.19-.57-.19-.53-.39-1.05-.59-1.57-.08-.21-.16-.42-.24-.63-.2-.5-.41-1-.63-1.49-.1-.22-.19-.45-.29-.67-.21-.48-.43-.95-.66-1.42-.11-.24-.22-.48-.33-.71-.22-.46-.45-.91-.69-1.37-.12-.25-.25-.49-.37-.74-.23-.44-.47-.88-.71-1.32-.14-.25-.27-.5-.41-.75-.24-.43-.49-.85-.74-1.28-.15-.26-.3-.51-.45-.77-.25-.42-.51-.83-.77-1.24-.16-.26-.32-.52-.48-.77-.26-.41-.53-.81-.8-1.22-.17-.26-.34-.51-.51-.77-.27-.4-.54-.79-.82-1.18-.18-.26-.36-.52-.55-.78-.28-.39-.56-.77-.84-1.16-.19-.26-.37-.51-.56-.77-.29-.39-.58-.77-.88-1.15-.19-.25-.38-.5-.57-.74-.3-.38-.6-.77-.91-1.15-.12-.15-.24-.3-.36-.45-.19-.23-.38-.47-.57-.7l-.28,3.46-.58,3.16c-3.42,18.73-11.71,36.23-24.04,50.74-8.39,9.87-17.79,18.8-28.03,26.67,19.46-22.15,31.29-50.4,33.07-80.48.16-2.62.25-5.25.25-7.9v-160.19l-1.17,1.54c-13.59,17.88-22.33,38.96-25.37,61.21l-8.91,65.18c-.25,0-.49-.02-.74-.02v.02c-6.32.03-12.94,1.49-20.27,4.28-.26.09-.52.2-.78.3-1.42.55-2.87,1.15-4.34,1.81-.17.07-.33.14-.5.22-.79.35-1.59.72-2.4,1.1-.32.15-.65.31-.97.46-2.54,1.22-5.17,2.56-7.91,4.03-.38.21-.77.41-1.16.63-.85.47-1.71.94-2.59,1.43-.3.17-.61.35-.91.52-.86.49-1.71.96-2.59,1.47-.75.43-1.47.89-2.2,1.34-.32.2-.64.38-.95.58-.05.03-.1.06-.15.09v.02c-19.09,12.28-31.23,31.56-35.01,52.49-.18.99-.33,1.98-.47,2.97-.04.29-.08.59-.12.88-.1.75-.19,1.51-.26,2.26-.03.29-.06.57-.09.86-.18,2.04-.29,4.08-.31,6.14v.8c0,.79,0,1.58.03,2.37,0,.28.01.56.02.84.04,1,.09,2,.17,3v.08c.08,1.02.18,2.04.3,3.06.04.3.08.61.12.91.1.74.2,1.47.32,2.2.05.33.1.66.16.99.15.88.31,1.75.49,2.62.03.17.07.34.1.51.2.95.43,1.89.66,2.83.09.37.19.73.29,1.09.17.65.35,1.29.55,1.94.11.39.23.77.35,1.16.23.75.48,1.49.74,2.23.07.21.13.42.21.63,0,0,.01.03.02.05l15.98-8.74c8.33-4.56,16.33-9.71,23.91-15.43l5.15-3.88c5.71-4.3,11.04-9.09,15.92-14.32,6.9-7.39,12.83-15.59,17.69-24.38-3.4,26.85-17.9,51.3-39.92,67.15-2.62,1.88-5.34,3.64-8.17,5.27l-3.53,2.04-17.9,10.34c6.24,9.2,14.14,16.68,23.06,22.33h-.02c.21.15.43.27.65.41.37.23.73.45,1.1.67,1.03.62,2.05,1.24,3.11,1.81.02.01.36.2.43.24,8.06,4.26,16.81,7.1,25.8,8.41h-.01c.13.02.25.03.38.05.79.11,1.58.21,2.37.29.2.02.39.05.59.07,2.03.21,4.08.34,6.13.39h.6c.81.01,1.62.02,2.43,0,.28,0,.56-.01.83-.02.75-.02,1.5-.05,2.24-.09.29-.02.57-.03.86-.05.8-.05,1.61-.12,2.41-.19.21-.02.42-.03.64-.06,1-.1,2.01-.22,3.01-.37.22-.03.44-.07.66-.1.76-.11,1.53-.24,2.29-.38.39-.07.79-.15,1.18-.23.59-.12,1.17-.23,1.75-.36.44-.1.88-.2,1.33-.3.53-.13,1.07-.26,1.6-.4.46-.12.93-.24,1.39-.37.52-.14,1.03-.3,1.54-.46.83-.25,1.65-.52,2.48-.8.51-.17,1.03-.34,1.54-.53.54-.2,1.08-.41,1.63-.62.4-.16.8-.31,1.21-.47.55-.22,1.1-.46,1.65-.7.38-.17.77-.34,1.15-.51.56-.25,1.11-.51,1.66-.77.36-.17.72-.35,1.08-.53.57-.28,1.14-.57,1.7-.87.27-.14.54-.3.81-.45.59-.32,1.18-.63,1.76-.97,25.45-14.69,39.64-41.38,39.57-68.8v.04Z"/>
</svg>