<?xml version="1.0" encoding="UTF-8"?>
<svg id="Layer_1" data-name="Layer 1" xmlns="http://www.w3.org/2000/svg" viewBox="0 0 641.65 699.65">
  <defs>
    <style>
      .cls-1 {
        fill: #303b70;
      }
    </style>
  </defs>
  <path class="cls-1" d="M197.96,567.89l-47.02-41.05s0-.01,0-.02l-.03-.02c5.62-10.76,7.38-25.1,7.38-45.22,0-31.15-18.01-58.09-44.18-71v.05s-.09-.05-.14-.07v1.53c-4.67,22.46-5.66,45.54-2.91,68.32l1.8,14.97c-12.22-16.57-19.16-36.86-19.16-58.04v-33.5c-4.73-.88-9.59-1.36-14.57-1.36-4.17,0-8.25.34-12.24.97v-.06c-2.75.43-5.45,1-8.1,1.71,13.48-17.1,22.47-37.3,26.13-58.78l8.22-48.32c.19-.05.37-.09.56-.14v-.05c6.19-1.63,12.85-4.37,20.27-8.14v.03c3.69-1.87,7.56-3.99,11.66-6.36,10.9-6.29,19.73-14.79,26.27-24.6,10.89-16.33,15.39-36.31,12.43-55.86-13.51,6.52-26.08,14.85-37.31,24.81l-4.39,3.89c-11.09,8.66-20.5,19.16-27.88,30.97,4.32-29.25,21.81-55.45,47.81-70.46l15.92-9.19c-1.15-2.6-2.43-5.16-3.88-7.67-3.78-6.54-8.35-12.32-13.52-17.32l.04-.03c-.59-.57-1.21-1.1-1.82-1.65-.11-.1-.23-.21-.34-.31-.78-.7-1.57-1.4-2.37-2.07l9.66,1.35c22.24,3.12,44.91.43,65.8-7.79l24.76-9.75,10.97-6.34s0,0,0,0l.12-.07c4.97,4.25,11.03,8.45,18.27,12.86l-.12.07c1.88,1.15,3.83,2.3,5.87,3.48,33.53,19.36,75.32,11.37,99.62-17.01l-.03-.02c.1-.11.2-.22.29-.33l-2.49-1.56c-6.59-4.14-13.48-7.77-20.63-10.86-15.92-6.89-32.88-11.04-50.18-12.27l-3.51-.25c24.35-9.47,51.73-8.83,75.66,1.94.03.01.06.03.09.04,2.92,1.32,5.8,2.79,8.61,4.41l3.3,1.9c3.39-6.96,5.64-14.21,6.86-21.53l.05.24c.82-4.8,1.17-9.62,1.1-14.43l4.46,9.64c9.43,20.38,23.96,37.98,42.2,51.09l43.21,31.06c-.07.11-.14.21-.2.32l.04.02c-3.25,5.44-5.39,11.84-6.71,19.53h0c-.18,1.03-.34,2.09-.49,3.18-.03.19-.05.38-.07.57-.12.94-.24,1.88-.34,2.86-.04.34-.07.69-.1,1.04-.09.86-.17,1.73-.24,2.62-.03.35-.05.71-.08,1.06-.07.94-.13,1.9-.19,2.88-.02.29-.03.59-.05.89-.06,1.14-.11,2.3-.15,3.49,0,.14-.01.28-.01.42-.09,2.8-.14,5.72-.14,8.79,0,6.64.82,13.09,2.36,19.26.07.3.17.59.24.88.24.92.49,1.85.76,2.76.24.79.51,1.56.77,2.34.14.41.26.82.4,1.23.41,1.15.84,2.29,1.3,3.41.01.03.02.05.03.08,11.37,27.8,38.1,47.68,69.64,49.11l.17-.15.08-14c.08-13.23-1.56-26.43-5.52-39.05-1.8-5.74-3.83-11.84-5.75-16.82-.15-.4-.31-.81-.48-1.22-5.51-13.91-13.86-26.23-24.03-37.01l6.67,3.85c25.36,14.64,42.64,39.93,47.48,68.31.02.15.05.29.07.44.14.82.26,1.64.37,2.46.04.28.08.56.12.84.09.68.16,1.35.24,2.03.04.4.09.8.13,1.2.3,3.09.46,6.21.46,9.35v18.12c11.71-2.47,22.46-7.53,31.64-14.55v.03c.23-.17.44-.36.66-.53.7-.55,1.39-1.11,2.07-1.67.53-.45,1.06-.9,1.58-1.36.08-.07.16-.14.24-.21,0,0,0,0,0-.01,16.29-14.49,26.57-35.59,26.57-59.1,0-.59-.03-1.18-.04-1.77-.01-.53-.01-1.05-.04-1.58-.01-.31-.04-.63-.06-.94-.05-.85-.1-1.7-.17-2.54,0-.04,0-.08,0-.12h0c-2.73-31.37-23.73-57.49-52.31-67.65-11.4-4.05-23.55-4.16-35.58-2.41l.03.02c-.13.02-.26.03-.38.05l15.76,10.69,4.17,3.4c10.09,8.22,17.93,18.85,22.82,30.91,4.69,11.59,7.7,23.8,8.92,36.25l.45,4.57c-11.04-27.16-30.87-50.43-57.09-65.56l-139.1-80.31c-2.25-1.3-4.53-2.52-6.83-3.67-.56-18.75-7.74-36.99-20.64-51.11l-.19-.02c-5.31-5.79-11.57-10.89-18.74-15.03-28.26-16.32-62.4-13.21-86.98,5.16h-.07c-1.29.96-2.55,1.95-3.78,3-5.99,5.1-10.7,11.32-14.5,18.15-4.91,8.8-8.31,18.63-10.98,28.43-.93,3.4-1.71,6.61-2.38,9.69l.05-.03c-.04.17-.08.35-.12.52l25.47-9.67c22.84-8.67,47.84-9.82,71.36-3.35-22.66.23-45.28,6.2-65.58,17.92l-127.06,73.36c-18.91-15.63-44.25-21.72-68.29-16.14l-.02.03c-7.43,1.72-14.74,4.56-21.7,8.58-29.79,17.2-44.17,50.85-38.28,82.86,3.25,17.69,14.88,32.46,27.54,45.25.51.51,1,1,1.51,1.49,0-.13,0-.27,0-.4l1.42-10.09c3-21.34,13.7-40.85,30.09-54.86l11.36-8.26c-14.5,21.68-22.62,47.5-22.62,74.47v128.73c-16.97,4.82-31.61,15.15-41.87,28.95-.01.02-.03.03-.04.05-.46.62-.91,1.24-1.35,1.87-.11.15-.21.31-.32.47-.34.5-.68,1-1.02,1.51-.21.31-.41.63-.61.95-.23.36-.45.71-.67,1.07-.31.51-.61,1.02-.91,1.54-.1.18-.21.35-.31.53-6.62,11.56-10.41,24.96-10.41,39.24,0,34.4,21.95,63.68,52.61,74.58,13.5,4.8,28.06,4.07,42.22,1.26-.94-.76-1.87-1.54-2.8-2.32l-2.71-2.83c-6.8-7.11-12.46-15.23-16.77-24.07-2.09-4.29-3.69-8.8-4.76-13.45l-1.64-7.1c-2.48-10.7-3.54-21.68-3.21-32.65,9.06,30.87,29.07,57.84,56.86,75.43.05.03.09.06.13.09,0,0,0,0,0,0,1.49.94,2.99,1.86,4.53,2.75l107.95,62.33c-7.68-18.31-19.46-34.66-34.46-47.76Z"/>
  <path class="cls-1" d="M641.65,489.62c0-.26,0-.52,0-.79-.02-1.37-.06-2.73-.15-4.1,0-.02,0-.04,0-.06-.09-1.35-.22-2.71-.38-4.06-.04-.34-.08-.68-.13-1.03-.17-1.3-.36-2.6-.6-3.9,0-.05-.01-.09-.02-.14-.27-1.49-.61-2.95-1-4.4-.02-.06-.03-.11-.04-.17-.16-.61-.35-1.21-.53-1.81-.05-.15-.09-.3-.13-.45-.18-.56-.37-1.11-.56-1.66-.07-.19-.13-.38-.19-.57-.19-.53-.39-1.05-.59-1.57-.08-.21-.16-.42-.24-.63-.2-.5-.41-1-.63-1.49-.1-.22-.19-.45-.29-.67-.21-.48-.43-.95-.66-1.42-.11-.24-.22-.48-.33-.71-.22-.46-.45-.91-.69-1.37-.12-.25-.25-.49-.37-.74-.23-.44-.47-.88-.71-1.32-.14-.25-.27-.5-.41-.75-.24-.43-.49-.85-.74-1.28-.15-.26-.3-.51-.45-.77-.25-.42-.51-.83-.77-1.24-.16-.26-.32-.52-.48-.77-.26-.41-.53-.81-.8-1.22-.17-.26-.34-.51-.51-.77-.27-.4-.54-.79-.82-1.18-.18-.26-.36-.52-.55-.78-.28-.39-.56-.77-.84-1.16-.19-.26-.37-.51-.56-.77-.29-.39-.58-.77-.88-1.15-.19-.25-.38-.5-.57-.74-.3-.38-.6-.77-.91-1.15-.12-.15-.24-.3-.36-.45,0,0,0,0,0,0-.19-.23-.38-.47-.57-.7l-.28,3.46-.58,3.16c-3.42,18.73-11.71,36.23-24.04,50.74-8.39,9.87-17.79,18.8-28.03,26.67,19.46-22.15,31.29-50.4,33.07-80.48.16-2.62.25-5.25.25-7.9v-15.79h0s0-144.4,0-144.4l-1.17,1.54c-13.59,17.88-22.33,38.96-25.37,61.21l-8.91,65.18c-.25,0-.49-.02-.74-.02v.02c-6.32.03-12.94,1.49-20.27,4.28h0c-.26.09-.52.2-.78.3-1.42.55-2.87,1.15-4.34,1.81-.17.07-.33.14-.5.22-.79.35-1.59.72-2.4,1.1-.32.15-.65.31-.97.46-2.54,1.22-5.17,2.56-7.91,4.03-.38.21-.77.41-1.16.63-.85.47-1.71.94-2.59,1.43-.3.17-.61.35-.91.52-.86.49-1.71.96-2.59,1.47-.75.43-1.47.89-2.2,1.34-.32.2-.64.38-.95.58-.05.03-.1.06-.15.09v.02c-19.09,12.28-31.23,31.56-35.01,52.49h0c-.18.99-.33,1.98-.47,2.97-.04.29-.08.59-.12.88-.1.75-.19,1.51-.26,2.26-.03.29-.06.57-.09.86-.18,2.04-.29,4.08-.31,6.14,0,.27,0,.53,0,.8,0,.79,0,1.58.03,2.37,0,.28.01.56.02.84.04,1,.09,2,.17,3,0,.03,0,.05,0,.08.08,1.02.18,2.04.3,3.06.04.3.08.61.12.91.1.74.2,1.47.32,2.2.05.33.1.66.16.99.15.88.31,1.75.49,2.62.03.17.07.34.1.51.2.95.43,1.89.66,2.83.09.37.19.73.29,1.09.17.65.35,1.29.55,1.94.11.39.23.77.35,1.16.23.75.48,1.49.74,2.23.07.21.13.42.21.63h0s.01.03.02.05l15.98-8.74c8.33-4.56,16.33-9.71,23.91-15.43l5.15-3.88c5.71-4.3,11.04-9.09,15.92-14.32,6.9-7.39,12.83-15.59,17.69-24.38-3.4,26.85-17.9,51.3-39.92,67.15-2.62,1.88-5.34,3.64-8.17,5.27l-3.53,2.04h0s-17.9,10.34-17.9,10.34c6.24,9.2,14.14,16.68,23.06,22.33h-.02c.21.15.43.27.65.41.37.23.73.45,1.1.67,1.03.62,2.07,1.21,3.13,1.78.02.01.05.03.07.04l-2.42-.31c-22.27-2.86-44.91.08-65.71,8.54l-60.29,24.52-4.44,2.57c-2.47-12.43-9.96-21.92-23.34-31.64l-.07-.02c-5.05-3.67-10.93-7.37-17.7-11.28-15.32-8.85-32.36-11.97-48.68-10.06h-.01c-.09,0-.18.02-.27.03-.91.11-1.81.23-2.71.38-.15.02-.29.04-.44.07-.97.16-1.93.33-2.9.52-.07.01-.15.03-.22.04-14.83,3-28.76,10.21-39.85,21.14l.05.03c-.05.05-.11.1-.16.15l.27.26s10.32,9.59,17.38,15.2c12.76,10.15,19.84,16.54,34.75,23.16,2.55,1.13,4.98,2.23,7.3,3.28,9.64,4.37,19.93,7.09,30.37,7.94-5.11.81-10.28,1.22-15.44,1.22-14.6,0-29.18-3.24-42.55-9.69-2.13-1.03-4.24-2.14-6.31-3.33l-14.33-8.27h0s-23.93-13.81-23.93-13.81c-.14.24-.3.47-.44.72-6.35,11.01-9.75,22.91-10.46,34.79l.07.04c-.5,8.39.35,16.77,2.45,24.82l-.09-.05c5.17,19.74,17.91,37.5,36.98,48.51,9.32,5.38,19.28,8.65,29.32,9.96,22.09,2.89,44.6-3.71,61.64-18.22,5.08-4.32,9.23-9.45,12.68-15.06l-.1.02c.17-.27.34-.53.5-.8-3.22.99-6.47,1.85-9.74,2.62l-6.5,1.28c-20.02,3.94-40.78.78-58.72-8.92-3.35-1.81-6.48-3.98-9.35-6.48l-15.31-13.3c.44.2.88.38,1.33.57.19.08.37.16.56.24,34.74,14.74,74.2,14.15,108.56-1.77.02,0,.04-.02.06-.03h0c3.6-1.67,7.15-3.5,10.63-5.5l127.92-73.85s0,0,0,0h.02c8.06,4.26,16.79,7.1,25.78,8.41,0,0,0,0-.01,0,.13.02.25.03.38.05.79.11,1.58.21,2.37.29.2.02.39.05.59.07,2.03.21,4.08.34,6.13.39.2,0,.4,0,.6,0,.81.01,1.62.02,2.43,0,.28,0,.56-.01.83-.02.75-.02,1.5-.05,2.24-.09.29-.02.57-.03.86-.05.8-.05,1.61-.12,2.41-.19.21-.02.42-.03.64-.06,1-.1,2.01-.22,3.01-.37.22-.03.44-.07.66-.1.76-.11,1.53-.24,2.29-.38.39-.07.79-.15,1.18-.23.59-.12,1.17-.23,1.75-.36.44-.1.88-.2,1.33-.3.53-.13,1.07-.26,1.6-.4.46-.12.93-.24,1.39-.37.52-.14,1.03-.3,1.54-.46.83-.25,1.65-.52,2.48-.8.51-.17,1.03-.34,1.54-.53.54-.2,1.08-.41,1.63-.62.4-.16.8-.31,1.21-.47.55-.22,1.1-.46,1.65-.7.38-.17.77-.34,1.15-.51.56-.25,1.11-.51,1.66-.77.36-.17.72-.35,1.08-.53.57-.28,1.14-.57,1.7-.87.27-.14.54-.3.81-.45.59-.32,1.18-.63,1.76-.97,25.45-14.69,39.64-41.38,39.57-68.8Z"/>
</svg>