<?xml version="1.0" encoding="UTF-8"?>
<svg id="Layer_1" data-name="Layer 1" xmlns="http://www.w3.org/2000/svg" viewBox="0 0 2333.08 344.93">
  <defs>
    <style>
      .cls-1 {
        fill: #efecee;
      }
    </style>
  </defs>
  <path class="cls-1" d="M0,255.79V0h63.56l80.85,134.29,19.55,40.62L160.96,0h60.17v255.78h-63.56L76.72,121.5l-19.55-41,3.01,175.29H0Z"/>
  <path class="cls-1" d="M320.02,120.37h-57.54c6.02-45.52,40.99-73.35,92.89-73.35,57.91,0,88,33.85,88,80.87v77.49c0,26.33,2.25,39.87,5.64,50.41h-59.42c-1.88-6.77-3.01-15.42-3.38-25.2-15.79,21.82-39.86,31.22-63.93,31.22-38.36,0-66.94-19.56-66.94-58.3,0-27.46,15.79-48.52,47.76-59.81,26.32-8.65,51.52-11.28,82.73-11.66v-4.51c0-22.19-10.91-33.85-33.09-33.85-19.56,0-30.09,10.91-32.72,26.71h0ZM312.87,199.74c0,13.54,10.15,22.19,27.08,22.19,25.57,0,45.88-20.69,45.88-48.52v-7.9c-58.29,1.13-72.96,15.42-72.96,34.23Z"/>
  <path class="cls-1" d="M484.32,255.79V53.41h57.54v26.71c13.16-22.57,33.85-33.1,58.67-33.1,38.73,0,67.69,23.7,67.69,73.73v135.04h-57.54v-123.38c0-25.58-10.15-38.74-31.21-38.74-22.94,0-37.61,19.94-37.61,45.89v116.23h-57.54Z"/>
  <path class="cls-1" d="M923.27,255.79V0h183.52v47.77h-123.35v62.44h108.68v47.77h-108.68v97.8h-60.17Z"/>
  <path class="cls-1" d="M1351.03,255.79V53.41h57.54v28.21c12.78-24.07,32.34-34.61,53.02-34.61,8.27,0,15.79,2.26,19.92,6.39v48.52c-6.76-1.5-13.91-2.26-22.93-2.26-34.6,0-50.01,19.56-50.01,51.53v104.57h-57.54,0Z"/>
  <path class="cls-1" d="M1575.34,256.16c-51.15,0-83.11-39.87-83.11-104.19s32.72-104.95,83.11-104.95c22.55,0,40.24,8.65,52.64,25.2v-18.81h57.53v209.14c0,54.17-38.36,82.38-91.38,82.38s-88.75-22.57-95.9-71.84h57.55c2.25,18.05,17.67,27.84,37.6,27.84s34.6-9.4,34.6-37.61v-33.85c-12.78,17.68-30.83,26.71-52.64,26.71h0ZM1589.24,209.52c25.58,0,38.74-20.31,38.74-57.93,0-33.7-10.87-53.51-31.24-57.27-.47-.09-.94-.17-1.28-.23-4.1-.62-8.3-.62-12.41,0-.34.06-.8.14-1.27.23s-.75.16-1.08.26c-6.42,2.41-13.33,4.72-17.43,10.6-.24.3-.52.65-.8,1.03-6.44,8.47-10.12,21.13-10.99,37.73-.02.37-.04.74-.05,1.11-.18,4.67-.18,9.27,0,13.82.02.37.04.74.06,1.11.04.74.08,1.46.14,2.18,0,.3.02.61.02.89-.53,4.83.96,9.3,2.24,13.9.07.31.13.61.05.93,4.99,20.94,16.97,31.64,35.33,31.64h0Z"/>
  <path class="cls-1" d="M1915.19,189.21c-10.53,46.64-48.13,72.6-97.77,72.6-62.81,0-101.54-40.62-101.54-107.2s39.12-107.58,99.29-107.58,98.52,40.25,98.52,106.45v12.79h-139.14c3.01,32.35,18.05,49.65,42.87,49.65,18.8,0,31.59-8.27,37.61-26.71h60.16ZM1815.16,92.91c-21.44,0-34.98,13.92-39.49,40.25h78.6c-4.51-26.33-18.05-40.25-39.1-40.25Z"/>
  <path class="cls-1" d="M2182.99,255.79l-16.91-47.77h-100.42l-16.91,47.77h-60.56L2081.46,0h72.2l93.64,255.78h-64.31ZM2108.16,88.02l-25.95,73.73h67.32l-25.95-73.73-7.52-28.96-7.89,28.96h0Z"/>
  <path class="cls-1" d="M2272.9,255.79V0h60.18v255.78h-60.18Z"/>
  <path class="cls-1" d="M865.52,80.23l-45.65-26.36c-16.39-9.46-36.58-9.46-52.97,0l-45.65,26.36c-16.39,9.46-26.48,26.95-26.48,45.88v52.73c0,18.93,10.09,36.42,26.48,45.88l45.65,26.36c16.39,9.46,36.58,9.46,52.97,0l45.65-26.36c16.39-9.46,26.48-26.95,26.48-45.88v-52.73c0-18.93-10.09-36.42-26.48-45.88h0ZM837.77,168.36c0,6.57-3.48,12.65-9.14,15.98l-26.48,15.58c-5.8,3.41-13,3.41-18.8,0l-26.48-15.58c-5.66-3.33-9.14-9.41-9.14-15.98v-31.77c0-6.57,3.48-12.65,9.14-15.98l26.48-15.58c5.8-3.41,13-3.41,18.8,0l26.48,15.58c5.66,3.33,9.14,9.41,9.14,15.98v31.77h0Z"/>
  <path class="cls-1" d="M1294.55,80.23l-45.65-26.36c-16.39-9.46-36.58-9.46-52.97,0l-45.66,26.36c-16.39,9.46-26.48,26.95-26.48,45.88v52.73c0,18.93,10.1,36.42,26.48,45.88l45.66,26.36c16.39,9.46,36.58,9.46,52.97,0l45.65-26.36c16.39-9.46,26.48-26.95,26.48-45.88v-52.73c0-18.93-10.1-36.42-26.48-45.88h0ZM1266.8,168.36c0,6.57-3.48,12.65-9.14,15.98l-26.48,15.58c-5.8,3.41-13,3.41-18.8,0l-26.48-15.58c-5.66-3.33-9.14-9.41-9.14-15.98v-31.77c0-6.57,3.48-12.65,9.14-15.98l26.48-15.58c5.8-3.41,13-3.41,18.8,0l26.48,15.58c5.66,3.33,9.14,9.41,9.14,15.98v31.77h0Z"/>
</svg>